<?xml version="1.0" ?><!DOCTYPE svg  PUBLIC '-//W3C//DTD SVG 1.1//EN'  'http://www.w3.org/Graphics/SVG/1.1/DTD/svg11.dtd'><svg xmlns="http://www.w3.org/2000/svg" width="712.0" height="233.0" viewBox="179.0 51.0 712.0 233.0"><rect x="179.0" y="51.0" width="712.0" height="233.0" style="fill:rgb(255, 255, 255);" /><rect x="639.0" y="189.0" width="85.0" height="26.0" stroke="#808080" fill="#d3d3d3"/><rect x="639.0" y="215.0" width="85.0" height="58.0" stroke="#808080" fill="#fff"/><text x="681.0" y="209" fill="#000" stroke-width="0.0" text-anchor="middle" font-family="DejaVu Sans Mono" font-size="16.0pt" font-weight="bold">césar</text><rect x="350.0" y="105.0" width="85.0" height="26.0" stroke="#808080" fill="#d3d3d3"/><rect x="350.0" y="131.0" width="85.0" height="58.0" stroke="#808080" fill="#fff"/><text x="392.0" y="125" fill="#000" stroke-width="0.0" text-anchor="middle" font-family="DejaVu Sans Mono" font-size="16.0pt" font-weight="bold">césar</text><rect x="473.0" y="208.0" width="98.0" height="26.0" stroke="#808080" fill="#d3d3d3"/><rect x="473.0" y="234.0" width="98.0" height="39.0" stroke="#808080" fill="#fff"/><text x="522.0" y="228" fill="#000" stroke-width="0.0" text-anchor="middle" font-family="DejaVu Sans Mono" font-size="16.0pt" font-weight="bold">opposé</text><polygon points="627.0,228.0 639.0,234.0 627.0,240.0" fill="#000" fill-rule="evenodd" stroke-linejoin="round"/><text x="641.0" y="240" fill="#000" stroke-width="0.0" font-family="DejaVu Sans Mono" font-size="12.0pt">A</text><polygon points="627.0,247.0 639.0,253.0 627.0,259.0" fill="#000" fill-rule="evenodd" stroke-linejoin="round"/><text x="641.0" y="259" fill="#000" stroke-width="0.0" font-family="DejaVu Sans Mono" font-size="12.0pt">B</text><polygon points="712.0,238.0 724.0,244.0 712.0,250.0" fill="#000" fill-rule="evenodd" stroke-linejoin="round"/><text x="724.0" y="240" fill="#000" stroke-width="0.0" font-family="DejaVu Sans Mono" font-size="12.0pt"></text><polygon points="338.0,144.0 350.0,150.0 338.0,156.0" fill="#000" fill-rule="evenodd" stroke-linejoin="round"/><text x="352.0" y="156" fill="#000" stroke-width="0.0" font-family="DejaVu Sans Mono" font-size="12.0pt">A</text><polygon points="338.0,163.0 350.0,169.0 338.0,175.0" fill="#000" fill-rule="evenodd" stroke-linejoin="round"/><text x="352.0" y="175" fill="#000" stroke-width="0.0" font-family="DejaVu Sans Mono" font-size="12.0pt">B</text><polygon points="423.0,154.0 435.0,160.0 423.0,166.0" fill="#000" fill-rule="evenodd" stroke-linejoin="round"/><text x="435.0" y="156" fill="#000" stroke-width="0.0" font-family="DejaVu Sans Mono" font-size="12.0pt"></text><polygon points="461.0,247.0 473.0,253.0 461.0,259.0" fill="#000" fill-rule="evenodd" stroke-linejoin="round"/><text x="475.0" y="259" fill="#000" stroke-width="0.0" font-family="DejaVu Sans Mono" font-size="12.0pt">a</text><polygon points="559.0,247.0 571.0,253.0 559.0,259.0" fill="#000" fill-rule="evenodd" stroke-linejoin="round"/><text x="571.0" y="249" fill="#000" stroke-width="0.0" font-family="DejaVu Sans Mono" font-size="12.0pt"></text><circle cx="255.0" cy="253.0" r="6.0" stroke="#000" fill="#000"/><text x="255.0" y="239" fill="#000" stroke-width="0.0" text-anchor="middle" font-family="DejaVu Sans Mono" font-size="12.0pt">clef</text><circle cx="255.0" cy="90.0" r="6.0" stroke="#000" fill="#000"/><text x="255.0" y="76" fill="#000" stroke-width="0.0" text-anchor="middle" font-family="DejaVu Sans Mono" font-size="12.0pt">message_clair</text><circle cx="554.0" cy="160.0" r="6.0" stroke="#000" fill="#000"/><text x="554.0" y="146" fill="#000" stroke-width="0.0" text-anchor="middle" font-family="DejaVu Sans Mono" font-size="12.0pt">message_chiffré</text><circle cx="815.0" cy="244.0" r="6.0" stroke="#000" fill="#000"/><text x="815.0" y="230" fill="#000" stroke-width="0.0" text-anchor="middle" font-family="DejaVu Sans Mono" font-size="12.0pt">message_clair</text><path d="M639.0,234.0 Q617.0,234.0 606.5,215.5 T585.5,178.5 T554.0,160.0" stroke="#000" fill="none"/><path d="M639.0,253.0 Q622.0,253.0 613.5,253.0 T596.5,253.0 T571.0,253.0" stroke="#000" fill="none"/><path d="M724.0,244.0 Q746.0,244.0 757.5,244.0 T780.5,244.0 T815.0,244.0" stroke="#000" fill="none"/><path d="M350.0,150.0 Q326.0,150.0 314.0,135.0 T290.0,105.0 T255.0,90.0" stroke="#000" fill="none"/><path d="M350.0,169.0 Q326.0,169.0 314.0,190.0 T290.0,232.0 T255.0,253.0" stroke="#000" fill="none"/><path d="M435.0,160.0 Q464.0,160.0 479.0,160.0 T509.0,160.0 T554.0,160.0" stroke="#000" fill="none"/><path d="M473.0,253.0 Q418.0,253.0 391.0,253.0 T336.5,253.0 T255.0,253.0" stroke="#000" fill="none"/></svg>