<?xml version="1.0" ?><!DOCTYPE svg  PUBLIC '-//W3C//DTD SVG 1.1//EN'  'http://www.w3.org/Graphics/SVG/1.1/DTD/svg11.dtd'><svg xmlns="http://www.w3.org/2000/svg" width="814.0" height="233.0" viewBox="179.0 51.0 814.0 233.0"><rect x="179.0" y="51.0" width="814.0" height="233.0" style="fill:rgb(255, 255, 255);" /><rect x="350.0" y="105.0" width="85.0" height="26.0" stroke="#808080" fill="#d3d3d3"/><rect x="350.0" y="131.0" width="85.0" height="58.0" stroke="#808080" fill="#fff"/><text x="392.0" y="125" fill="#000" stroke-width="0.0" text-anchor="middle" font-family="DejaVu Sans Mono" font-size="16.0pt" font-weight="bold">césar</text><rect x="600.0" y="208.0" width="98.0" height="26.0" stroke="#808080" fill="#d3d3d3"/><rect x="600.0" y="234.0" width="98.0" height="39.0" stroke="#808080" fill="#fff"/><text x="649.0" y="228" fill="#000" stroke-width="0.0" text-anchor="middle" font-family="DejaVu Sans Mono" font-size="16.0pt" font-weight="bold">opposé</text><rect x="738.0" y="155.0" width="85.0" height="26.0" stroke="#808080" fill="#d3d3d3"/><rect x="738.0" y="181.0" width="85.0" height="58.0" stroke="#808080" fill="#fff"/><text x="780.0" y="175" fill="#000" stroke-width="0.0" text-anchor="middle" font-family="DejaVu Sans Mono" font-size="16.0pt" font-weight="bold">césar</text><polygon points="338.0,144.0 350.0,150.0 338.0,156.0" fill="#000" fill-rule="evenodd" stroke-linejoin="round"/><text x="352.0" y="156" fill="#000" stroke-width="0.0" font-family="DejaVu Sans Mono" font-size="12.0pt">m</text><polygon points="338.0,163.0 350.0,169.0 338.0,175.0" fill="#000" fill-rule="evenodd" stroke-linejoin="round"/><text x="352.0" y="175" fill="#000" stroke-width="0.0" font-family="DejaVu Sans Mono" font-size="12.0pt">c</text><polygon points="423.0,154.0 435.0,160.0 423.0,166.0" fill="#000" fill-rule="evenodd" stroke-linejoin="round"/><text x="435.0" y="156" fill="#000" stroke-width="0.0" font-family="DejaVu Sans Mono" font-size="12.0pt"></text><polygon points="588.0,247.0 600.0,253.0 588.0,259.0" fill="#000" fill-rule="evenodd" stroke-linejoin="round"/><text x="602.0" y="259" fill="#000" stroke-width="0.0" font-family="DejaVu Sans Mono" font-size="12.0pt">x</text><polygon points="686.0,247.0 698.0,253.0 686.0,259.0" fill="#000" fill-rule="evenodd" stroke-linejoin="round"/><text x="698.0" y="249" fill="#000" stroke-width="0.0" font-family="DejaVu Sans Mono" font-size="12.0pt"></text><polygon points="726.0,194.0 738.0,200.0 726.0,206.0" fill="#000" fill-rule="evenodd" stroke-linejoin="round"/><text x="740.0" y="206" fill="#000" stroke-width="0.0" font-family="DejaVu Sans Mono" font-size="12.0pt">m</text><polygon points="726.0,213.0 738.0,219.0 726.0,225.0" fill="#000" fill-rule="evenodd" stroke-linejoin="round"/><text x="740.0" y="225" fill="#000" stroke-width="0.0" font-family="DejaVu Sans Mono" font-size="12.0pt">c</text><polygon points="811.0,204.0 823.0,210.0 811.0,216.0" fill="#000" fill-rule="evenodd" stroke-linejoin="round"/><text x="823.0" y="206" fill="#000" stroke-width="0.0" font-family="DejaVu Sans Mono" font-size="12.0pt"></text><circle cx="255.0" cy="253.0" r="6.0" stroke="#000" fill="#000"/><text x="255.0" y="239" fill="#000" stroke-width="0.0" text-anchor="middle" font-family="DejaVu Sans Mono" font-size="12.0pt">clef</text><circle cx="255.0" cy="90.0" r="6.0" stroke="#000" fill="#000"/><text x="255.0" y="76" fill="#000" stroke-width="0.0" text-anchor="middle" font-family="DejaVu Sans Mono" font-size="12.0pt">message_clair</text><circle cx="558.0" cy="160.0" r="6.0" stroke="#000" fill="#000"/><text x="558.0" y="146" fill="#000" stroke-width="0.0" text-anchor="middle" font-family="DejaVu Sans Mono" font-size="12.0pt">message_chiffré</text><circle cx="917.0" cy="210.0" r="6.0" stroke="#000" fill="#000"/><text x="917.0" y="196" fill="#000" stroke-width="0.0" text-anchor="middle" font-family="DejaVu Sans Mono" font-size="12.0pt">message_clair</text><path d="M350.0,150.0 Q326.0,150.0 314.0,135.0 T290.0,105.0 T255.0,90.0" stroke="#000" fill="none"/><path d="M350.0,169.0 Q326.0,169.0 314.0,190.0 T290.0,232.0 T255.0,253.0" stroke="#000" fill="none"/><path d="M435.0,160.0 Q465.0,160.0 480.5,160.0 T511.5,160.0 T558.0,160.0" stroke="#000" fill="none"/><path d="M600.0,253.0 Q513.0,253.0 470.0,253.0 T384.0,253.0 T255.0,253.0" stroke="#000" fill="none"/><path d="M698.0,253.0 Q708.0,253.0 713.0,244.5 T723.0,227.5 T738.0,219.0" stroke="#000" fill="none"/><path d="M738.0,200.0 Q693.0,200.0 670.5,190.0 T625.5,170.0 T558.0,160.0" stroke="#000" fill="none"/><path d="M823.0,210.0 Q846.0,210.0 858.0,210.0 T881.5,210.0 T917.0,210.0" stroke="#000" fill="none"/></svg>