<?xml version="1.0" ?><!DOCTYPE svg  PUBLIC '-//W3C//DTD SVG 1.1//EN'  'http://www.w3.org/Graphics/SVG/1.1/DTD/svg11.dtd'><svg xmlns="http://www.w3.org/2000/svg" width="695.0" height="233.0" viewBox="179.0 51.0 695.0 233.0"><rect x="179.0" y="51.0" width="695.0" height="233.0" style="fill:rgb(255, 255, 255);fill-opacity:1.0" /><rect x="639.0" y="189.0" width="59.0" height="26.0" stroke="#808080" fill="#d3d3d3"/><rect x="639.0" y="215.0" width="59.0" height="58.0" stroke="#808080" fill="#fff"/><text x="668.0" y="209" fill="#000" stroke-width="0.0" text-anchor="middle" font-family="DejaVu Sans Mono" font-size="16.0pt" font-weight="bold">XOR</text><rect x="405.0" y="105.0" width="59.0" height="26.0" stroke="#808080" fill="#d3d3d3"/><rect x="405.0" y="131.0" width="59.0" height="58.0" stroke="#808080" fill="#fff"/><text x="434.0" y="125" fill="#000" stroke-width="0.0" text-anchor="middle" font-family="DejaVu Sans Mono" font-size="16.0pt" font-weight="bold">XOR</text><polygon points="627.0,228.0 639.0,234.0 627.0,240.0" fill="#000" fill-rule="evenodd" stroke-linejoin="round"/><text x="641.0" y="240" fill="#000" stroke-width="0.0" font-family="DejaVu Sans Mono" font-size="12.0pt">A</text><polygon points="627.0,247.0 639.0,253.0 627.0,259.0" fill="#000" fill-rule="evenodd" stroke-linejoin="round"/><text x="641.0" y="259" fill="#000" stroke-width="0.0" font-family="DejaVu Sans Mono" font-size="12.0pt">B</text><polygon points="686.0,238.0 698.0,244.0 686.0,250.0" fill="#000" fill-rule="evenodd" stroke-linejoin="round"/><text x="698.0" y="240" fill="#000" stroke-width="0.0" font-family="DejaVu Sans Mono" font-size="12.0pt"></text><polygon points="393.0,144.0 405.0,150.0 393.0,156.0" fill="#000" fill-rule="evenodd" stroke-linejoin="round"/><text x="407.0" y="156" fill="#000" stroke-width="0.0" font-family="DejaVu Sans Mono" font-size="12.0pt">A</text><polygon points="393.0,163.0 405.0,169.0 393.0,175.0" fill="#000" fill-rule="evenodd" stroke-linejoin="round"/><text x="407.0" y="175" fill="#000" stroke-width="0.0" font-family="DejaVu Sans Mono" font-size="12.0pt">B</text><polygon points="452.0,154.0 464.0,160.0 452.0,166.0" fill="#000" fill-rule="evenodd" stroke-linejoin="round"/><text x="464.0" y="156" fill="#000" stroke-width="0.0" font-family="DejaVu Sans Mono" font-size="12.0pt"></text><circle cx="255.0" cy="253.0" r="6.0" stroke="#000" fill="#000"/><text x="255.0" y="239" fill="#000" stroke-width="0.0" text-anchor="middle" font-family="DejaVu Sans Mono" font-size="12.0pt">clef</text><circle cx="255.0" cy="90.0" r="6.0" stroke="#000" fill="#000"/><text x="255.0" y="76" fill="#000" stroke-width="0.0" text-anchor="middle" font-family="DejaVu Sans Mono" font-size="12.0pt">message_clair</text><circle cx="554.0" cy="160.0" r="6.0" stroke="#000" fill="#000"/><text x="554.0" y="146" fill="#000" stroke-width="0.0" text-anchor="middle" font-family="DejaVu Sans Mono" font-size="12.0pt">message_chiffré</text><circle cx="798.0" cy="244.0" r="6.0" stroke="#000" fill="#000"/><text x="798.0" y="230" fill="#000" stroke-width="0.0" text-anchor="middle" font-family="DejaVu Sans Mono" font-size="12.0pt">message_clair</text><path d="M639.0,234.0 Q617.0,234.0 606.5,215.5 T585.5,178.5 T554.0,160.0" stroke="#000" fill="none"/><path d="M639.0,253.0 Q543.0,253.0 495.0,253.0 T399.0,253.0 T255.0,253.0" stroke="#000" fill="none"/><path d="M698.0,244.0 Q698.0,244.0 698.0,244.0 T698.0,244.0 T698.0,244.0" stroke="#000" fill="none"/><path d="M698.0,244.0 Q723.0,244.0 735.5,244.0 T760.5,244.0 T798.0,244.0" stroke="#000" fill="none"/><path d="M405.0,150.0 Q367.0,150.0 348.5,135.0 T311.0,105.0 T255.0,90.0" stroke="#000" fill="none"/><path d="M405.0,169.0 Q367.0,169.0 348.5,190.0 T311.0,232.0 T255.0,253.0" stroke="#000" fill="none"/><path d="M464.0,160.0 Q486.0,160.0 497.5,160.0 T520.0,160.0 T554.0,160.0" stroke="#000" fill="none"/></svg>